<svg width="20" height="20" viewBox="0 0 20 20" fill="none" xmlns="http://www.w3.org/2000/svg">
<g clip-path="url(#clip0_8_88)">
<path d="M9.16666 5.83335H10.8333V7.50002H9.16666V5.83335ZM9.16666 9.16669H10.8333V14.1667H9.16666V9.16669ZM9.99999 1.66669C5.39999 1.66669 1.66666 5.40002 1.66666 10C1.66666 14.6 5.39999 18.3334 9.99999 18.3334C14.6 18.3334 18.3333 14.6 18.3333 10C18.3333 5.40002 14.6 1.66669 9.99999 1.66669ZM9.99999 16.6667C6.32499 16.6667 3.33332 13.675 3.33332 10C3.33332 6.32502 6.32499 3.33335 9.99999 3.33335C13.675 3.33335 16.6667 6.32502 16.6667 10C16.6667 13.675 13.675 16.6667 9.99999 16.6667Z" fill="#7B8084"/>
</g>
<defs>
<clipPath id="clip0_8_88">
<rect width="20" height="20" fill="white"/>
</clipPath>
</defs>
</svg>
